{
  "accessors": [
    {
      "bufferView": 2,
      "componentType": 5126,
      "count": 4114,
      "max": [
        60297.85546875,
        60267.640625,
        55792.5703125
      ],
      "min": [
        -60297.859375,
        -60267.640625,
        -55792.5703125
      ],
      "type": "VEC3"
    },
    {
      "bufferView": 2,
      "byteOffset": 49368,
      "componentType": 5126,
      "count": 4114,
      "max": [
        0.9999748468399048,
        1.0,
        1.0
      ],
      "min": [
        -0.9999749064445496,
        -1.0,
        -1.0
      ],
      "type": "VEC3"
    },
    {
      "bufferView": 1,
      "componentType": 5126,
      "count": 4114,
      "max": [
        1.0499708652496338,
        0.9961401224136353
      ],
      "min": [
        -0.049970537424087524,
        0.005972678307443857
      ],
      "type": "VEC2"
    },
    {
      "bufferView": 1,
      "byteOffset": 32912,
      "componentType": 5126,
      "count": 4114,
      "max": [
        1.5,
        1.0
      ],
      "min": [
        -0.5,
        0.0
      ],
      "type": "VEC2"
    },
    {
      "bufferView": 0,
      "componentType": 5125,
      "count": 23040,
      "type": "SCALAR"
    },
    {
      "bufferView": 2,
      "byteOffset": 98736,
      "componentType": 5126,
      "count": 65532,
      "max": [
        143893.515625,
        143542.953125,
        1434.70654296875
      ],
      "min": [
        -121964.25,
        -141834.453125,
        -1657.236083984375
      ],
      "type": "VEC3"
    },
    {
      "bufferView": 2,
      "byteOffset": 885120,
      "componentType": 5126,
      "count": 65532,
      "max": [
        0.9999960064888,
        0.9999969005584717,
        0.9999695420265198
      ],
      "min": [
        -0.9999369978904724,
        -0.999987006187439,
        -0.9999696016311646
      ],
      "type": "VEC3"
    },
    {
      "bufferView": 1,
      "byteOffset": 65824,
      "componentType": 5126,
      "count": 65532,
      "max": [
        1.0177326202392578,
        1.0
      ],
      "min": [
        0.015452484600245953,
        0.6959549188613892
      ],
      "type": "VEC2"
    },
    {
      "bufferView": 0,
      "byteOffset": 92160,
      "componentType": 5125,
      "count": 196410,
      "type": "SCALAR"
    },
    {
      "bufferView": 2,
      "byteOffset": 1671504,
      "componentType": 5126,
      "count": 65532,
      "max": [
        130704.5234375,
        139149.078125,
        1657.236083984375
      ],
      "min": [
        -138993.359375,
        -143785.421875,
        -1657.236083984375
      ],
      "type": "VEC3"
    },
    {
      "bufferView": 2,
      "byteOffset": 2457888,
      "componentType": 5126,
      "count": 65532,
      "max": [
        0.9999934434890747,
        0.9999002814292908,
        0.9999696016311646
      ],
      "min": [
        -0.9999977350234985,
        -0.9999960064888,
        -0.9999696612358093
      ],
      "type": "VEC3"
    },
    {
      "bufferView": 1,
      "byteOffset": 590080,
      "componentType": 5126,
      "count": 65532,
      "max": [
        0.9904645681381226,
        1.0
      ],
      "min": [
        0.09113948047161102,
        0.6976158618927002
      ],
      "type": "VEC2"
    },
    {
      "bufferView": 0,
      "byteOffset": 877800,
      "componentType": 5125,
      "count": 196584,
      "type": "SCALAR"
    },
    {
      "bufferView": 2,
      "byteOffset": 3244272,
      "componentType": 5126,
      "count": 65532,
      "max": [
        130352.1640625,
        143577.421875,
        1657.236083984375
      ],
      "min": [
        -143893.515625,
        -140324.390625,
        -1657.236083984375
      ],
      "type": "VEC3"
    },
    {
      "bufferView": 2,
      "byteOffset": 4030656,
      "componentType": 5126,
      "count": 65532,
      "max": [
        0.9999529719352722,
        0.9999969005584717,
        0.999969482421875
      ],
      "min": [
        -0.9999867677688599,
        -0.9999933838844299,
        -0.9999696612358093
      ],
      "type": "VEC3"
    },
    {
      "bufferView": 1,
      "byteOffset": 1114336,
      "componentType": 5126,
      "count": 65532,
      "max": [
        0.9914149045944214,
        1.0
      ],
      "min": [
        0.026626339182257652,
        0.6970263719558716
      ],
      "type": "VEC2"
    },
    {
      "bufferView": 0,
      "byteOffset": 1664136,
      "componentType": 5125,
      "count": 196584,
      "type": "SCALAR"
    },
    {
      "bufferView": 2,
      "byteOffset": 4817040,
      "componentType": 5126,
      "count": 65534,
      "max": [
        130219.4296875,
        143785.4375,
        1434.70654296875
      ],
      "min": [
        -103299.84375,
        -123372.21875,
        -1237.5614013671875
      ],
      "type": "VEC3"
    },
    {
      "bufferView": 2,
      "byteOffset": 5603448,
      "componentType": 5126,
      "count": 65534,
      "max": [
        0.9999868273735046,
        0.9999874830245972,
        0.9999987483024597
      ],
      "min": [
        -0.999961793422699,
        -0.9999435544013977,
        -0.9998576045036316
      ],
      "type": "VEC3"
    },
    {
      "bufferView": 1,
      "byteOffset": 1638592,
      "componentType": 5126,
      "count": 65534,
      "max": [
        1.0171656608581543,
        1.0
      ],
      "min": [
        0.016414359211921692,
        0.0006041878368705511
      ],
      "type": "VEC2"
    },
    {
      "bufferView": 0,
      "byteOffset": 2450472,
      "componentType": 5125,
      "count": 183705,
      "type": "SCALAR"
    },
    {
      "bufferView": 2,
      "byteOffset": 6389856,
      "componentType": 5126,
      "count": 65533,
      "max": [
        123376.703125,
        123389.390625,
        720.9551391601563
      ],
      "min": [
        -123365.1796875,
        -123203.6015625,
        -774.4037475585938
      ],
      "type": "VEC3"
    },
    {
      "bufferView": 2,
      "byteOffset": 7176252,
      "componentType": 5126,
      "count": 65533,
      "max": [
        0.9999957084655762,
        0.9999831914901733,
        0.9999724626541138
      ],
      "min": [
        -0.9999391436576843,
        -0.9999992847442627,
        -0.9999553561210632
      ],
      "type": "VEC3"
    },
    {
      "bufferView": 1,
      "byteOffset": 2162864,
      "componentType": 5126,
      "count": 65533,
      "max": [
        1.0168811082839966,
        0.7098664045333862
      ],
      "min": [
        0.016612377017736435,
        0.0018487352645024657
      ],
      "type": "VEC2"
    },
    {
      "bufferView": 0,
      "byteOffset": 3185292,
      "componentType": 5125,
      "count": 194466,
      "type": "SCALAR"
    },
    {
      "bufferView": 2,
      "byteOffset": 7962648,
      "componentType": 5126,
      "count": 65532,
      "max": [
        123226.890625,
        123335.375,
        773.3053588867188
      ],
      "min": [
        -123264.6875,
        -120192.3046875,
        -766.8346557617188
      ],
      "type": "VEC3"
    },
    {
      "bufferView": 2,
      "byteOffset": 8749032,
      "componentType": 5126,
      "count": 65532,
      "max": [
        0.9999983310699463,
        0.999947190284729,
        0.9999539852142334
      ],
      "min": [
        -0.9999570846557617,
        -0.9999615550041199,
        -0.9999890923500061
      ],
      "type": "VEC3"
    },
    {
      "bufferView": 1,
      "byteOffset": 2687128,
      "componentType": 5126,
      "count": 65532,
      "max": [
        1.017134189605713,
        0.7114166021347046
      ],
      "min": [
        0.01620916649699211,
        0.00027615757426247
      ],
      "type": "VEC2"
    },
    {
      "bufferView": 0,
      "byteOffset": 3963156,
      "componentType": 5125,
      "count": 195174,
      "type": "SCALAR"
    },
    {
      "bufferView": 2,
      "byteOffset": 9535416,
      "componentType": 5126,
      "count": 65534,
      "max": [
        123437.359375,
        123250.0390625,
        796.4863891601563
      ],
      "min": [
        -123439.015625,
        -123410.0390625,
        -793.822265625
      ],
      "type": "VEC3"
    },
    {
      "bufferView": 2,
      "byteOffset": 10321824,
      "componentType": 5126,
      "count": 65534,
      "max": [
        0.9999896287918091,
        0.9999775290489197,
        0.9999756813049316
      ],
      "min": [
        -0.9999505281448364,
        -0.9999890327453613,
        -0.9999650120735168
      ],
      "type": "VEC3"
    },
    {
      "bufferView": 1,
      "byteOffset": 3211384,
      "componentType": 5126,
      "count": 65534,
      "max": [
        1.0167001485824585,
        0.7109615802764893
      ],
      "min": [
        0.01665196195244789,
        0.000368279404938221
      ],
      "type": "VEC2"
    },
    {
      "bufferView": 0,
      "byteOffset": 4743852,
      "componentType": 5125,
      "count": 194058,
      "type": "SCALAR"
    },
    {
      "bufferView": 2,
      "byteOffset": 11108232,
      "componentType": 5126,
      "count": 65359,
      "max": [
        123375.203125,
        122933.890625,
        792.8599853515625
      ],
      "min": [
        -122410.546875,
        -123334.765625,
        -783.791259765625
      ],
      "type": "VEC3"
    },
    {
      "bufferView": 2,
      "byteOffset": 11892540,
      "componentType": 5126,
      "count": 65359,
      "max": [
        0.9999992251396179,
        0.9999691843986511,
        0.9999913573265076
      ],
      "min": [
        -0.9999737739562988,
        -0.9999621510505676,
        -0.9999220967292786
      ],
      "type": "VEC3"
    },
    {
      "bufferView": 1,
      "byteOffset": 3735656,
      "componentType": 5126,
      "count": 65359,
      "max": [
        1.017376184463501,
        0.7102900743484497
      ],
      "min": [
        0.01605546846985817,
        0.00026224751491099596
      ],
      "type": "VEC2"
    },
    {
      "bufferView": 0,
      "byteOffset": 5520084,
      "componentType": 5125,
      "count": 188547,
      "type": "SCALAR"
    },
    {
      "bufferView": 2,
      "byteOffset": 12676848,
      "componentType": 5126,
      "count": 181,
      "max": [
        800.0000610351563,
        800.0,
        800.0
      ],
      "min": [
        -800.0000610351563,
        -800.0,
        -800.0
      ],
      "type": "VEC3"
    },
    {
      "bufferView": 2,
      "byteOffset": 12679020,
      "componentType": 5126,
      "count": 181,
      "max": [
        0.9999962449073792,
        1.0,
        1.0
      ],
      "min": [
        -0.9999962449073792,
        -1.0,
        -1.0
      ],
      "type": "VEC3"
    },
    {
      "bufferView": 1,
      "byteOffset": 4258528,
      "componentType": 5126,
      "count": 181,
      "max": [
        0.975368857383728,
        1.0
      ],
      "min": [
        -0.20000004768371582,
        0.0
      ],
      "type": "VEC2"
    },
    {
      "bufferView": 0,
      "byteOffset": 6274272,
      "componentType": 5125,
      "count": 960,
      "type": "SCALAR"
    },
    {
      "bufferView": 2,
      "byteOffset": 12681192,
      "componentType": 5126,
      "count": 181,
      "max": [
        999.9999389648438,
        1000.0,
        1000.0
      ],
      "min": [
        -1000.0000610351563,
        -1000.0,
        -1000.0
      ],
      "type": "VEC3"
    },
    {
      "bufferView": 2,
      "byteOffset": 12683364,
      "componentType": 5126,
      "count": 181,
      "max": [
        0.9999962449073792,
        1.0,
        1.0
      ],
      "min": [
        -0.9999962449073792,
        -1.0,
        -1.0
      ],
      "type": "VEC3"
    },
    {
      "bufferView": 1,
      "byteOffset": 4259976,
      "componentType": 5126,
      "count": 181,
      "max": [
        0.975368857383728,
        1.0
      ],
      "min": [
        -0.20000004768371582,
        0.0
      ],
      "type": "VEC2"
    },
    {
      "bufferView": 0,
      "byteOffset": 6278112,
      "componentType": 5125,
      "count": 960,
      "type": "SCALAR"
    }
  ],
  "asset": {
    "extras": {
      "author": "NestaEric (https://sketchfab.com/Nestaeric)",
      "license": "CC-BY-4.0 (http://creativecommons.org/licenses/by/4.0/)",
      "source": "https://sketchfab.com/3d-models/saturn-c09a1970148c43ad99db134a9d6d00b5",
      "title": "Saturn"
    },
    "generator": "Sketchfab-12.29.0",
    "version": "2.0"
  },
  "bufferViews": [
    {
      "buffer": 0,
      "byteLength": 6281952,
      "name": "floatBufferViews",
      "target": 34963
    },
    {
      "buffer": 0,
      "byteLength": 4261424,
      "byteOffset": 6281952,
      "byteStride": 8,
      "name": "floatBufferViews",
      "target": 34962
    },
    {
      "buffer": 0,
      "byteLength": 12685536,
      "byteOffset": 10543376,
      "byteStride": 12,
      "name": "floatBufferViews",
      "target": 34962
    }
  ],
  "buffers": [
    {
      "byteLength": 23228912,
      "uri": "scene.bin"
    }
  ],
  "extensionsRequired": [
    "KHR_materials_pbrSpecularGlossiness"
  ],
  "extensionsUsed": [
    "KHR_materials_pbrSpecularGlossiness"
  ],
  "images": [
    {
      "uri": "textures/saturn1_A_diffuse.png"
    },
    {
      "uri": "textures/saturn2_A_diffuse.png"
    }
  ],
  "materials": [
    {
      "doubleSided": true,
      "extensions": {
        "KHR_materials_pbrSpecularGlossiness": {
          "diffuseFactor": [
            1.0,
            1.0,
            1.0,
            1.0
          ],
          "diffuseTexture": {
            "index": 0
          },
          "glossinessFactor": 0.44704524200991386,
          "specularFactor": [
            0.0,
            0.0,
            0.0
          ]
        }
      },
      "name": "saturn1_A"
    },
    {
      "alphaMode": "BLEND",
      "doubleSided": true,
      "extensions": {
        "KHR_materials_pbrSpecularGlossiness": {
          "diffuseFactor": [
            1.0,
            1.0,
            1.0,
            0.55
          ],
          "diffuseTexture": {
            "index": 1
          },
          "glossinessFactor": 0.17811138140322352,
          "specularFactor": [
            0.7,
            0.7,
            0.7
          ],
          "specularGlossinessTexture": {
            "index": 1
          }
        }
      },
      "name": "saturn2_A"
    },
    {
      "doubleSided": true,
      "extensions": {
        "KHR_materials_pbrSpecularGlossiness": {
          "diffuseFactor": [
            0.48540884404178286,
            0.48540884404178286,
            0.48540884404178286,
            1.0
          ],
          "glossinessFactor": 0.10702864035024488,
          "specularFactor": [
            0.05,
            0.05,
            0.05
          ]
        }
      },
      "name": "Mimas"
    },
    {
      "doubleSided": true,
      "extensions": {
        "KHR_materials_pbrSpecularGlossiness": {
          "diffuseFactor": [
            0.398045601540723,
            0.398045601540723,
            0.398045601540723,
            1.0
          ],
          "glossinessFactor": 0.10702864035024488,
          "specularFactor": [
            0.05,
            0.05,
            0.05
          ]
        }
      },
      "name": "Enceladus"
    }
  ],
  "meshes": [
    {
      "name": "Saturn1_A_saturn1_A_0",
      "primitives": [
        {
          "attributes": {
            "NORMAL": 1,
            "POSITION": 0,
            "TEXCOORD_0": 2,
            "TEXCOORD_1": 3
          },
          "indices": 4,
          "material": 0,
          "mode": 4
        }
      ]
    },
    {
      "name": "Saturn2_A_saturn2_A_0",
      "primitives": [
        {
          "attributes": {
            "NORMAL": 6,
            "POSITION": 5,
            "TEXCOORD_0": 7
          },
          "indices": 8,
          "material": 1,
          "mode": 4
        }
      ]
    },
    {
      "name": "Saturn2_A_saturn2_A_0",
      "primitives": [
        {
          "attributes": {
            "NORMAL": 10,
            "POSITION": 9,
            "TEXCOORD_0": 11
          },
          "indices": 12,
          "material": 1,
          "mode": 4
        }
      ]
    },
    {
      "name": "Saturn2_A_saturn2_A_0",
      "primitives": [
        {
          "attributes": {
            "NORMAL": 14,
            "POSITION": 13,
            "TEXCOORD_0": 15
          },
          "indices": 16,
          "material": 1,
          "mode": 4
        }
      ]
    },
    {
      "name": "Saturn2_A_saturn2_A_0",
      "primitives": [
        {
          "attributes": {
            "NORMAL": 18,
            "POSITION": 17,
            "TEXCOORD_0": 19
          },
          "indices": 20,
          "material": 1,
          "mode": 4
        }
      ]
    },
    {
      "name": "Saturn2_A_saturn2_A_0",
      "primitives": [
        {
          "attributes": {
            "NORMAL": 22,
            "POSITION": 21,
            "TEXCOORD_0": 23
          },
          "indices": 24,
          "material": 1,
          "mode": 4
        }
      ]
    },
    {
      "name": "Saturn2_A_saturn2_A_0",
      "primitives": [
        {
          "attributes": {
            "NORMAL": 26,
            "POSITION": 25,
            "TEXCOORD_0": 27
          },
          "indices": 28,
          "material": 1,
          "mode": 4
        }
      ]
    },
    {
      "name": "Saturn2_A_saturn2_A_0",
      "primitives": [
        {
          "attributes": {
            "NORMAL": 30,
            "POSITION": 29,
            "TEXCOORD_0": 31
          },
          "indices": 32,
          "material": 1,
          "mode": 4
        }
      ]
    },
    {
      "name": "Saturn2_A_saturn2_A_0",
      "primitives": [
        {
          "attributes": {
            "NORMAL": 34,
            "POSITION": 33,
            "TEXCOORD_0": 35
          },
          "indices": 36,
          "material": 1,
          "mode": 4
        }
      ]
    },
    {
      "name": "Mimas_Mimas_0",
      "primitives": [
        {
          "attributes": {
            "NORMAL": 38,
            "POSITION": 37,
            "TEXCOORD_0": 39
          },
          "indices": 40,
          "material": 2,
          "mode": 4
        }
      ]
    },
    {
      "name": "Enceladus_Enceladus_0",
      "primitives": [
        {
          "attributes": {
            "NORMAL": 42,
            "POSITION": 41,
            "TEXCOORD_0": 43
          },
          "indices": 44,
          "material": 3,
          "mode": 4
        }
      ]
    }
  ],
  "nodes": [
    {
      "children": [
        1
      ],
      "matrix": [
        0.009999999776482582,
        0.0,
        0.0,
        0.0,
        0.0,
        2.2204459996194763e-18,
        -0.009999999776482582,
        0.0,
        0.0,
        0.009999999776482582,
        2.2204459996194763e-18,
        0.0,
        0.0,
        0.0,
        0.0,
        1.0
      ],
      "name": "Sketchfab_model"
    },
    {
      "children": [
        2
      ],
      "matrix": [
        0.009999999776482582,
        0.0,
        0.0,
        0.0,
        0.0,
        0.0,
        0.009999999776482582,
        0.0,
        0.0,
        -0.009999999776482582,
        0.0,
        0.0,
        0.0,
        0.0,
        0.0,
        1.0
      ],
      "name": "116058d613e1412ebd0b06c56382f00f.fbx"
    },
    {
      "children": [
        3
      ],
      "name": "Object_2"
    },
    {
      "children": [
        4,
        16,
        20
      ],
      "name": "RootNode"
    },
    {
      "children": [
        5,
        7
      ],
      "name": "Saturn_Dummy",
      "rotation": [
        -0.5730391144752502,
        0.11226113140583038,
        0.41427791118621826,
        0.6981385350227356
      ]
    },
    {
      "children": [
        6
      ],
      "name": "Saturn1_A",
      "rotation": [
        8.27180809768254e-25,
        -2.980232594040899e-08,
        2.7755578924351364e-17,
        1.0
      ],
      "scale": [
        0.9999999403953552,
        0.9999999403953552,
        1.0
      ]
    },
    {
      "mesh": 0,
      "name": "Saturn1_A_saturn1_A_0"
    },
    {
      "children": [
        8,
        9,
        10,
        11,
        12,
        13,
        14,
        15
      ],
      "name": "Saturn2_A",
      "rotation": [
        -9.583946081193062e-09,
        8.013605072218748e-16,
        -8.94069742685133e-08,
        1.0
      ]
    },
    {
      "mesh": 1,
      "name": "Saturn2_A_saturn2_A_0"
    },
    {
      "mesh": 2,
      "name": "Saturn2_A_saturn2_A_0"
    },
    {
      "mesh": 3,
      "name": "Saturn2_A_saturn2_A_0"
    },
    {
      "mesh": 4,
      "name": "Saturn2_A_saturn2_A_0"
    },
    {
      "mesh": 5,
      "name": "Saturn2_A_saturn2_A_0"
    },
    {
      "mesh": 6,
      "name": "Saturn2_A_saturn2_A_0"
    },
    {
      "mesh": 7,
      "name": "Saturn2_A_saturn2_A_0"
    },
    {
      "mesh": 8,
      "name": "Saturn2_A_saturn2_A_0"
    },
    {
      "children": [
        17
      ],
      "name": "Mimas_Dummy1",
      "rotation": [
        -0.6506872177124023,
        -0.21911020576953888,
        0.209004208445549,
        0.6963577270507813
      ]
    },
    {
      "children": [
        18
      ],
      "name": "Mimas_Dummy2",
      "rotation": [
        1.862645149230957e-09,
        3.165870343657673e-17,
        -1.862645149230957e-09,
        1.0
      ]
    },
    {
      "children": [
        19
      ],
      "name": "Mimas",
      "rotation": [
        1.862645149230957e-09,
        -3.382710778154774e-17,
        -1.862645149230957e-09,
        1.0
      ],
      "translation": [
        -185000.015625,
        0.00048828125,
        0.015625
      ]
    },
    {
      "mesh": 9,
      "name": "Mimas_Mimas_0"
    },
    {
      "children": [
        21
      ],
      "name": "Enceladus_Dummy1",
      "rotation": [
        -0.6200560331344604,
        0.16146378219127655,
        0.3852112591266632,
        0.6641327142715454
      ]
    },
    {
      "children": [
        22
      ],
      "name": "Enceladus_Dummy2",
      "rotation": [
        -7.450580596923828e-09,
        -1.4901161193847656e-08,
        2.1420419216156006e-08,
        1.0
      ]
    },
    {
      "children": [
        23
      ],
      "name": "Enceladus",
      "rotation": [
        -7.450580596923828e-09,
        -1.4901161193847656e-08,
        2.1420419216156006e-08,
        1.0
      ],
      "translation": [
        -238000.0,
        -0.01025390625,
        -1.0913936421275139e-11
      ]
    },
    {
      "mesh": 10,
      "name": "Enceladus_Enceladus_0"
    }
  ],
  "samplers": [
    {
      "magFilter": 9729,
      "minFilter": 9987,
      "wrapS": 10497,
      "wrapT": 10497
    }
  ],
  "scene": 0,
  "scenes": [
    {
      "name": "Sketchfab_Scene",
      "nodes": [
        0
      ]
    }
  ],
  "textures": [
    {
      "sampler": 0,
      "source": 0
    },
    {
      "sampler": 0,
      "source": 1
    }
  ]
}
